# xmcd
#
# Track frame offsets:
#	150
#	6787
#	14625
#	21787
#	31125
#	39487
#	46350
#	57375
#	67987
#	78937
#	90075
#	101250
#	112537
#	123150
#	134100
#	144900
#	157125
#	169050
#	180825
#	192862
#	204975
#	217537
#	230287
#	242250
#	253837
#	265612
#	277550
#	288150
#	300187
#
# Disc length: 4154 seconds
#
# Revision: 1
# Processed by: cddbd v1.5.1PL0 Copyright (c) Steve Scherf et al.
# Submitted via: CDex 1.50Beta5
#
DISCID=5c10381d
DTITLE=NHK(交) - NHK大河ドラマ主題曲集
DYEAR=1991
DGENRE=Soundtrack
TTITLE0=花の生涯
TTITLE1=赤穂浪士
TTITLE2=太閤記
TTITLE3=源義経
TTITLE4=三姉妹
TTITLE5=竜馬がゆく
TTITLE6=天と地と
TTITLE7=樅ノ木は残った
TTITLE8=春の坂道
TTITLE9=新・平家物語
TTITLE10=国盗り物語
TTITLE11=勝海舟
TTITLE12=元禄太平記
TTITLE13=風と雲と虹と
TTITLE14=花神
TTITLE15=黄金の日々
TTITLE16=草燃える
TTITLE17=獅子の時代
TTITLE18=おんな太閤記
TTITLE19=峠の群像
TTITLE20=徳川家康
TTITLE21=山河燃ゆ
TTITLE22=春の波涛
TTITLE23=いのち
TTITLE24=独眼竜政宗
TTITLE25=武田信玄
TTITLE26=春日局
TTITLE27=翔ぶが如く
TTITLE28=太平記
EXTD=
EXTT0=
EXTT1=
EXTT2=
EXTT3=
EXTT4=
EXTT5=
EXTT6=
EXTT7=
EXTT8=
EXTT9=
EXTT10=
EXTT11=
EXTT12=
EXTT13=
EXTT14=
EXTT15=
EXTT16=
EXTT17=
EXTT18=
EXTT19=
EXTT20=
EXTT21=
EXTT22=
EXTT23=
EXTT24=
EXTT25=
EXTT26=
EXTT27=
EXTT28=
PLAYORDER=
